<?xml version="1.0" encoding="UTF-8" standalone="no"?>
<!DOCTYPE svg PUBLIC "-//W3C//DTD SVG 1.1//EN" "http://www.w3.org/Graphics/SVG/1.1/DTD/svg11.dtd">
<svg width="100%" height="100%" viewBox="0 0 536 83" version="1.1" xmlns="http://www.w3.org/2000/svg" xmlns:xlink="http://www.w3.org/1999/xlink" xml:space="preserve" xmlns:serif="http://www.serif.com/" style="fill-rule:evenodd;clip-rule:evenodd;stroke-linejoin:round;stroke-miterlimit:1.41421;">
    <g transform="matrix(1,0,0,1,-607.221,-2436)">
        <g transform="matrix(0.264363,0,0,0.264363,506.189,1660.62)">
            <path d="M1001.08,2964.38C988.104,2958.87 975.215,2956.12 962.415,2956.12C936.46,2956.12 923.482,2965.72 923.482,2984.92C923.482,2993.27 926.415,3001.05 932.282,3008.25C938.148,3015.45 945.26,3021.85 953.615,3027.45C961.971,3033.05 970.326,3038.78 978.682,3044.65C987.037,3050.52 994.148,3057.54 1000.01,3065.72C1005.88,3073.89 1008.82,3082.78 1008.82,3092.38C1008.82,3108.56 1003.39,3120.78 992.548,3129.05C981.704,3137.32 966.726,3141.45 947.615,3141.45C928.504,3141.45 912.193,3136.56 898.682,3126.78L905.082,3117.18C917.882,3125.54 931.926,3129.72 947.215,3129.72C962.504,3129.72 974.237,3126.65 982.415,3120.52C990.593,3114.38 994.682,3105.54 994.682,3093.98C994.682,3085.98 991.748,3078.38 985.882,3071.18C980.015,3063.98 972.904,3057.49 964.548,3051.72C956.193,3045.94 947.837,3040.03 939.482,3033.98C931.126,3027.94 924.015,3020.74 918.148,3012.38C912.282,3004.03 909.348,2995.05 909.348,2985.45C909.348,2972.83 914.015,2962.83 923.348,2955.45C932.682,2948.07 945.304,2944.38 961.215,2944.38C977.126,2944.38 991.926,2947.58 1005.62,2953.98L1001.08,2964.38Z" style="fill:rgb(43,43,43);fill-rule:nonzero;stroke:rgb(51,34,34);stroke-width:3.78px;"/>
            <path d="M1099.75,2958.78L1035.21,2958.78L1035.21,2947.58L1177.08,2947.58L1177.08,2958.78L1112.55,2958.78L1112.55,3138.25L1099.75,3138.25L1099.75,2958.78Z" style="fill:rgb(43,43,43);fill-rule:nonzero;stroke:rgb(51,34,34);stroke-width:3.78px;"/>
            <path d="M1208.02,3072.12L1180.55,3138.25L1166.95,3138.25L1247.21,2946.25L1254.68,2946.25L1335.21,3138.25L1320.82,3138.25L1293.35,3072.12L1208.02,3072.12ZM1250.15,2967.58C1249.97,2967.76 1249.62,2968.83 1249.08,2970.78C1246.59,2978.43 1244.19,2984.92 1241.88,2990.25L1212.55,3061.18L1288.82,3061.18L1259.48,2990.52C1253.26,2977.01 1250.15,2969.36 1250.15,2967.58Z" style="fill:rgb(43,43,43);fill-rule:nonzero;stroke:rgb(51,34,34);stroke-width:3.78px;"/>
            <path d="M1386.95,2977.98L1387.48,3000.65L1387.48,3138.25L1374.68,3138.25L1374.68,2945.98L1380.55,2945.98L1506.15,3090.78C1514.68,3100.92 1521.26,3109.01 1525.88,3115.05C1525.17,3106.52 1524.82,3096.74 1524.82,3085.72L1524.82,2947.58L1537.62,2947.58L1537.62,3139.85L1531.75,3139.85L1403.75,2992.38C1394.86,2982.25 1389.17,2975.49 1386.68,2972.12L1386.95,2977.98Z" style="fill:rgb(43,43,43);fill-rule:nonzero;stroke:rgb(51,34,34);stroke-width:3.78px;"/>
            <path d="M1669.08,3128.92C1694.15,3128.92 1714.28,3122.12 1729.48,3108.52C1744.68,3094.92 1752.28,3074.43 1752.28,3047.05C1752.28,3019.67 1743.7,2997.89 1726.55,2981.72C1709.39,2965.54 1688.19,2957.45 1662.95,2957.45C1646.77,2957.45 1632.73,2957.89 1620.82,2958.78L1620.82,3126.78C1632.37,3128.2 1648.46,3128.92 1669.08,3128.92ZM1662.95,2945.72C1692.28,2945.72 1716.82,2954.83 1736.55,2973.05C1756.28,2991.27 1766.15,3016.03 1766.15,3047.32C1766.15,3063.14 1763.62,3077.14 1758.55,3089.32C1753.48,3101.49 1746.5,3111.23 1737.62,3118.52C1719.3,3133.27 1696.46,3140.65 1669.08,3140.65C1651.13,3140.65 1630.77,3139.67 1608.02,3137.72L1608.02,2947.58C1626.15,2946.34 1644.46,2945.72 1662.95,2945.72Z" style="fill:rgb(43,43,43);fill-rule:nonzero;stroke:rgb(51,34,34);stroke-width:3.78px;"/>
            <path d="M1832.82,3072.12L1805.35,3138.25L1791.75,3138.25L1872.02,2946.25L1879.48,2946.25L1960.02,3138.25L1945.62,3138.25L1918.15,3072.12L1832.82,3072.12ZM1874.95,2967.58C1874.77,2967.76 1874.41,2968.83 1873.88,2970.78C1871.39,2978.43 1868.99,2984.92 1866.68,2990.25L1837.35,3061.18L1913.62,3061.18L1884.28,2990.52C1878.06,2977.01 1874.95,2969.36 1874.95,2967.58Z" style="fill:rgb(43,43,43);fill-rule:nonzero;stroke:rgb(51,34,34);stroke-width:3.78px;"/>
            <path d="M1999.48,3138.25L1999.48,2948.38C2016.37,2947.14 2030.5,2946.52 2041.88,2946.52C2060.01,2946.52 2074.95,2951.18 2086.68,2960.52C2098.41,2969.85 2104.28,2983.05 2104.28,3000.12C2104.28,3011.67 2100.9,3022.43 2094.15,3032.38C2087.39,3042.34 2079.84,3050.25 2071.48,3056.12C2078.06,3065.18 2086.19,3075.98 2095.88,3088.52C2105.57,3101.05 2111.84,3108.92 2114.68,3112.12C2125.53,3123.67 2137.79,3130.25 2151.48,3131.85L2151.22,3140.38C2140.37,3140.2 2131.57,3138.56 2124.82,3135.45C2118.06,3132.34 2111.62,3127.58 2105.48,3121.18C2099.35,3114.78 2084.1,3094.87 2059.75,3061.45C2042.33,3061.45 2026.5,3060.92 2012.28,3059.85L2012.28,3138.25L1999.48,3138.25ZM2052.01,3050.78C2059.84,3050.78 2068.19,3045.63 2077.08,3035.32C2085.97,3025.01 2090.41,3013.05 2090.41,2999.45C2090.41,2985.85 2085.84,2975.54 2076.68,2968.52C2067.53,2961.49 2055.39,2957.98 2040.28,2957.98C2032.28,2957.98 2022.95,2958.34 2012.28,2959.05L2012.28,3049.45C2026.5,3050.34 2039.75,3050.78 2052.01,3050.78Z" style="fill:rgb(43,43,43);fill-rule:nonzero;stroke:rgb(51,34,34);stroke-width:3.78px;"/>
            <path d="M2197.62,2958.78L2133.08,2958.78L2133.08,2947.58L2274.95,2947.58L2274.95,2958.78L2210.41,2958.78L2210.41,3138.25L2197.62,3138.25L2197.62,2958.78Z" style="fill:rgb(43,43,43);fill-rule:nonzero;stroke:rgb(51,34,34);stroke-width:3.78px;"/>
            <path d="M2316.01,3138.25L2316.01,2947.58L2404.55,2947.58L2404.55,2958.78L2328.82,2958.78L2328.82,3028.92L2397.35,3028.92L2397.35,3039.85L2328.82,3039.85L2328.82,3127.05L2407.48,3127.05L2407.48,3138.25L2316.01,3138.25Z" style="fill:rgb(43,43,43);fill-rule:nonzero;stroke:rgb(51,34,34);stroke-width:3.78px;"/>
        </g>
        <g transform="matrix(0.091122,0,0,0.091122,557.409,2248.37)">
            <g transform="matrix(1,0,0,1,-46.1596,1786.38)">
                <path d="M823.31,299.031C1109.99,440.095 1439.65,150.484 1721.65,338.479L1721.65,872.301C1504.74,756.616 1175.86,925.618 898.802,962.864C817.503,973.793 740.667,973.378 672.432,951.095L823.31,299.031Z" style="fill:rgb(255,200,0);"/>
            </g>
            <g transform="matrix(-0.214215,-0.0494553,-0.224951,0.97437,905.052,1869.98)">
                <path d="M470.102,230.814L411.138,230.814L411.138,1147.95L469.652,1146L470.102,230.814Z" style="fill:rgb(255,200,0);"/>
            </g>
        </g>
    </g>
</svg>
